<svg xmlns="http://www.w3.org/2000/svg" viewBox="0 0 1600 900" preserveAspectRatio="xMidYMid slice">
  <defs>
    <!-- fine clay grain -->
    <filter id="grain" x="0" y="0" width="100%" height="100%">
      <feTurbulence type="fractalNoise" baseFrequency="0.9" numOctaves="3" seed="7" result="n"/>
      <feColorMatrix in="n" type="matrix" values="0 0 0 0 0.35  0 0 0 0 0.12  0 0 0 0 0.04  0 0 0 0.55 -0.12"/>
    </filter>
    <!-- long drag-brush streaks, rotated with the court -->
    <filter id="brush" x="0" y="0" width="100%" height="100%">
      <feTurbulence type="fractalNoise" baseFrequency="0.0015 0.06" numOctaves="2" seed="3" result="s"/>
      <feColorMatrix in="s" type="matrix" values="0 0 0 0 1  0 0 0 0 0.85  0 0 0 0 0.7  0 0 0 0.5 -0.2"/>
    </filter>
    <!-- slightly dusty court lines -->
    <filter id="dusty" x="-5%" y="-5%" width="110%" height="110%">
      <feTurbulence type="fractalNoise" baseFrequency="0.5" numOctaves="2" seed="11" result="d"/>
      <feDisplacementMap in="SourceGraphic" in2="d" scale="3"/>
    </filter>
    <pattern id="mesh" width="7" height="7" patternUnits="userSpaceOnUse">
      <path d="M0 0L7 7M7 0L0 7" stroke="#1c1410" stroke-width="0.8" opacity="0.8"/>
    </pattern>
    <radialGradient id="vignette" cx="50%" cy="50%" r="75%">
      <stop offset="55%" stop-color="#000" stop-opacity="0"/>
      <stop offset="100%" stop-color="#1a0a04" stop-opacity="0.55"/>
    </radialGradient>
    <linearGradient id="light" x1="0" y1="0" x2="1" y2="1">
      <stop offset="0" stop-color="#fff" stop-opacity="0.10"/>
      <stop offset="1" stop-color="#000" stop-opacity="0.12"/>
    </linearGradient>
  </defs>

  <rect width="1600" height="900" fill="#c65a2e"/>

  <!-- court: 1 m = 62 px, long axis rotated so the net crosses the frame diagonally -->
  <g transform="translate(800 450) rotate(-22)">
    <rect x="-1400" y="-1000" width="2800" height="2000" filter="url(#brush)" opacity="0.45"/>
    <g fill="none" stroke="#f6ede4" stroke-opacity="0.5" stroke-width="5" filter="url(#dusty)">
      <rect x="-737" y="-340" width="1474" height="680"/>
      <line x1="-737" y1="-255" x2="737" y2="-255"/>
      <line x1="-737" y1="255" x2="737" y2="255"/>
      <line x1="-397" y1="-255" x2="-397" y2="255"/>
      <line x1="397" y1="-255" x2="397" y2="255"/>
      <line x1="-397" y1="0" x2="397" y2="0"/>
      <line x1="-737" y1="0" x2="-723" y2="0"/>
      <line x1="723" y1="0" x2="737" y2="0"/>
    </g>
    <!-- net shadow, mesh, tape and posts -->
    <rect x="4" y="-400" width="22" height="800" fill="#2a0f05" opacity="0.28"/>
    <rect x="-7" y="-397" width="14" height="794" fill="url(#mesh)"/>
    <rect x="-4" y="-397" width="8" height="794" fill="#f7f1ea" opacity="0.9"/>
    <circle cx="0" cy="-400" r="9" fill="#26352a"/>
    <circle cx="0" cy="400" r="9" fill="#26352a"/>
  </g>

  <rect width="1600" height="900" filter="url(#grain)"/>
  <rect width="1600" height="900" fill="url(#light)"/>
  <rect width="1600" height="900" fill="url(#vignette)"/>
</svg>
